<?xml version="1.0" encoding="UTF-8"?>
<svg xmlns="http://www.w3.org/2000/svg" width="1200" height="110" viewBox="0 0 1200 110" role="img" aria-label="Compétences : Python, SQL, PyTorch, TensorFlow, scikit-learn, XGBoost, calcul scientifique">
<defs><linearGradient id="fade" x1="0" x2="1"><stop offset="0" stop-color="#000"/><stop offset="0.08" stop-color="#fff"/><stop offset="0.92" stop-color="#fff"/><stop offset="1" stop-color="#000"/></linearGradient><mask id="m"><rect width="1200" height="110" fill="url(#fade)"/></mask></defs>
<g mask="url(#m)">
<g transform="translate(0,10)"><g><animateTransform attributeName="transform" type="translate" from="0 0" to="-1199 0" dur="26.6s" repeatCount="indefinite"/><rect x="0" y="0" width="85" height="34" rx="17" fill="#161b22" stroke="#30363d"/><text x="42.5" y="22" text-anchor="middle" font-family="'Segoe UI','Helvetica Neue',Arial,sans-serif" font-size="14" fill="#c9d1d9">Python</text><rect x="97" y="0" width="59" height="34" rx="17" fill="#161b22" stroke="#30363d"/><text x="126.5" y="22" text-anchor="middle" font-family="'Segoe UI','Helvetica Neue',Arial,sans-serif" font-size="14" fill="#c9d1d9">SQL</text><rect x="168" y="0" width="94" height="34" rx="17" fill="#161b22" stroke="#30363d"/><text x="215.0" y="22" text-anchor="middle" font-family="'Segoe UI','Helvetica Neue',Arial,sans-serif" font-size="14" fill="#c9d1d9">PyTorch</text><rect x="274" y="0" width="120" height="34" rx="17" fill="#161b22" stroke="#30363d"/><text x="334.0" y="22" text-anchor="middle" font-family="'Segoe UI','Helvetica Neue',Arial,sans-serif" font-size="14" fill="#c9d1d9">TensorFlow</text><rect x="406" y="0" width="137" height="34" rx="17" fill="#161b22" stroke="#30363d"/><text x="474.5" y="22" text-anchor="middle" font-family="'Segoe UI','Helvetica Neue',Arial,sans-serif" font-size="14" fill="#c9d1d9">scikit-learn</text><rect x="555" y="0" width="94" height="34" rx="17" fill="#161b22" stroke="#30363d"/><text x="602.0" y="22" text-anchor="middle" font-family="'Segoe UI','Helvetica Neue',Arial,sans-serif" font-size="14" fill="#c9d1d9">XGBoost</text><rect x="661" y="0" width="85" height="34" rx="17" fill="#161b22" stroke="#30363d"/><text x="703.5" y="22" text-anchor="middle" font-family="'Segoe UI','Helvetica Neue',Arial,sans-serif" font-size="14" fill="#c9d1d9">pandas</text><rect x="758" y="0" width="77" height="34" rx="17" fill="#161b22" stroke="#30363d"/><text x="796.5" y="22" text-anchor="middle" font-family="'Segoe UI','Helvetica Neue',Arial,sans-serif" font-size="14" fill="#c9d1d9">NumPy</text><rect x="847" y="0" width="85" height="34" rx="17" fill="#161b22" stroke="#30363d"/><text x="889.5" y="22" text-anchor="middle" font-family="'Segoe UI','Helvetica Neue',Arial,sans-serif" font-size="14" fill="#c9d1d9">OpenCV</text><rect x="944" y="0" width="120" height="34" rx="17" fill="#161b22" stroke="#30363d"/><text x="1004.0" y="22" text-anchor="middle" font-family="'Segoe UI','Helvetica Neue',Arial,sans-serif" font-size="14" fill="#c9d1d9">Matplotlib</text><rect x="1076" y="0" width="111" height="34" rx="17" fill="#161b22" stroke="#30363d"/><text x="1131.5" y="22" text-anchor="middle" font-family="'Segoe UI','Helvetica Neue',Arial,sans-serif" font-size="14" fill="#c9d1d9">Streamlit</text><rect x="1199" y="0" width="85" height="34" rx="17" fill="#161b22" stroke="#30363d"/><text x="1241.5" y="22" text-anchor="middle" font-family="'Segoe UI','Helvetica Neue',Arial,sans-serif" font-size="14" fill="#c9d1d9">Python</text><rect x="1296" y="0" width="59" height="34" rx="17" fill="#161b22" stroke="#30363d"/><text x="1325.5" y="22" text-anchor="middle" font-family="'Segoe UI','Helvetica Neue',Arial,sans-serif" font-size="14" fill="#c9d1d9">SQL</text><rect x="1367" y="0" width="94" height="34" rx="17" fill="#161b22" stroke="#30363d"/><text x="1414.0" y="22" text-anchor="middle" font-family="'Segoe UI','Helvetica Neue',Arial,sans-serif" font-size="14" fill="#c9d1d9">PyTorch</text><rect x="1473" y="0" width="120" height="34" rx="17" fill="#161b22" stroke="#30363d"/><text x="1533.0" y="22" text-anchor="middle" font-family="'Segoe UI','Helvetica Neue',Arial,sans-serif" font-size="14" fill="#c9d1d9">TensorFlow</text><rect x="1605" y="0" width="137" height="34" rx="17" fill="#161b22" stroke="#30363d"/><text x="1673.5" y="22" text-anchor="middle" font-family="'Segoe UI','Helvetica Neue',Arial,sans-serif" font-size="14" fill="#c9d1d9">scikit-learn</text><rect x="1754" y="0" width="94" height="34" rx="17" fill="#161b22" stroke="#30363d"/><text x="1801.0" y="22" text-anchor="middle" font-family="'Segoe UI','Helvetica Neue',Arial,sans-serif" font-size="14" fill="#c9d1d9">XGBoost</text><rect x="1860" y="0" width="85" height="34" rx="17" fill="#161b22" stroke="#30363d"/><text x="1902.5" y="22" text-anchor="middle" font-family="'Segoe UI','Helvetica Neue',Arial,sans-serif" font-size="14" fill="#c9d1d9">pandas</text><rect x="1957" y="0" width="77" height="34" rx="17" fill="#161b22" stroke="#30363d"/><text x="1995.5" y="22" text-anchor="middle" font-family="'Segoe UI','Helvetica Neue',Arial,sans-serif" font-size="14" fill="#c9d1d9">NumPy</text><rect x="2046" y="0" width="85" height="34" rx="17" fill="#161b22" stroke="#30363d"/><text x="2088.5" y="22" text-anchor="middle" font-family="'Segoe UI','Helvetica Neue',Arial,sans-serif" font-size="14" fill="#c9d1d9">OpenCV</text><rect x="2143" y="0" width="120" height="34" rx="17" fill="#161b22" stroke="#30363d"/><text x="2203.0" y="22" text-anchor="middle" font-family="'Segoe UI','Helvetica Neue',Arial,sans-serif" font-size="14" fill="#c9d1d9">Matplotlib</text><rect x="2275" y="0" width="111" height="34" rx="17" fill="#161b22" stroke="#30363d"/><text x="2330.5" y="22" text-anchor="middle" font-family="'Segoe UI','Helvetica Neue',Arial,sans-serif" font-size="14" fill="#c9d1d9">Streamlit</text><rect x="2398" y="0" width="85" height="34" rx="17" fill="#161b22" stroke="#30363d"/><text x="2440.5" y="22" text-anchor="middle" font-family="'Segoe UI','Helvetica Neue',Arial,sans-serif" font-size="14" fill="#c9d1d9">Python</text><rect x="2495" y="0" width="59" height="34" rx="17" fill="#161b22" stroke="#30363d"/><text x="2524.5" y="22" text-anchor="middle" font-family="'Segoe UI','Helvetica Neue',Arial,sans-serif" font-size="14" fill="#c9d1d9">SQL</text><rect x="2566" y="0" width="94" height="34" rx="17" fill="#161b22" stroke="#30363d"/><text x="2613.0" y="22" text-anchor="middle" font-family="'Segoe UI','Helvetica Neue',Arial,sans-serif" font-size="14" fill="#c9d1d9">PyTorch</text><rect x="2672" y="0" width="120" height="34" rx="17" fill="#161b22" stroke="#30363d"/><text x="2732.0" y="22" text-anchor="middle" font-family="'Segoe UI','Helvetica Neue',Arial,sans-serif" font-size="14" fill="#c9d1d9">TensorFlow</text><rect x="2804" y="0" width="137" height="34" rx="17" fill="#161b22" stroke="#30363d"/><text x="2872.5" y="22" text-anchor="middle" font-family="'Segoe UI','Helvetica Neue',Arial,sans-serif" font-size="14" fill="#c9d1d9">scikit-learn</text><rect x="2953" y="0" width="94" height="34" rx="17" fill="#161b22" stroke="#30363d"/><text x="3000.0" y="22" text-anchor="middle" font-family="'Segoe UI','Helvetica Neue',Arial,sans-serif" font-size="14" fill="#c9d1d9">XGBoost</text><rect x="3059" y="0" width="85" height="34" rx="17" fill="#161b22" stroke="#30363d"/><text x="3101.5" y="22" text-anchor="middle" font-family="'Segoe UI','Helvetica Neue',Arial,sans-serif" font-size="14" fill="#c9d1d9">pandas</text><rect x="3156" y="0" width="77" height="34" rx="17" fill="#161b22" stroke="#30363d"/><text x="3194.5" y="22" text-anchor="middle" font-family="'Segoe UI','Helvetica Neue',Arial,sans-serif" font-size="14" fill="#c9d1d9">NumPy</text><rect x="3245" y="0" width="85" height="34" rx="17" fill="#161b22" stroke="#30363d"/><text x="3287.5" y="22" text-anchor="middle" font-family="'Segoe UI','Helvetica Neue',Arial,sans-serif" font-size="14" fill="#c9d1d9">OpenCV</text><rect x="3342" y="0" width="120" height="34" rx="17" fill="#161b22" stroke="#30363d"/><text x="3402.0" y="22" text-anchor="middle" font-family="'Segoe UI','Helvetica Neue',Arial,sans-serif" font-size="14" fill="#c9d1d9">Matplotlib</text><rect x="3474" y="0" width="111" height="34" rx="17" fill="#161b22" stroke="#30363d"/><text x="3529.5" y="22" text-anchor="middle" font-family="'Segoe UI','Helvetica Neue',Arial,sans-serif" font-size="14" fill="#c9d1d9">Streamlit</text></g></g>
<g transform="translate(0,58)"><g><animateTransform attributeName="transform" type="translate" from="-1303 0" to="0 0" dur="29.0s" repeatCount="indefinite"/><rect x="0" y="0" width="59" height="34" rx="17" fill="#161b22" stroke="#30363d"/><text x="29.5" y="22" text-anchor="middle" font-family="'Segoe UI','Helvetica Neue',Arial,sans-serif" font-size="14" fill="#c9d1d9">C++</text><rect x="71" y="0" width="85" height="34" rx="17" fill="#161b22" stroke="#30363d"/><text x="113.5" y="22" text-anchor="middle" font-family="'Segoe UI','Helvetica Neue',Arial,sans-serif" font-size="14" fill="#c9d1d9">MATLAB</text><rect x="168" y="0" width="77" height="34" rx="17" fill="#161b22" stroke="#30363d"/><text x="206.5" y="22" text-anchor="middle" font-family="'Segoe UI','Helvetica Neue',Arial,sans-serif" font-size="14" fill="#c9d1d9">SciPy</text><rect x="257" y="0" width="128" height="34" rx="17" fill="#161b22" stroke="#30363d"/><text x="321.0" y="22" text-anchor="middle" font-family="'Segoe UI','Helvetica Neue',Arial,sans-serif" font-size="14" fill="#c9d1d9">Monte-Carlo</text><rect x="397" y="0" width="111" height="34" rx="17" fill="#161b22" stroke="#30363d"/><text x="452.5" y="22" text-anchor="middle" font-family="'Segoe UI','Helvetica Neue',Arial,sans-serif" font-size="14" fill="#c9d1d9">Bootstrap</text><rect x="520" y="0" width="102" height="34" rx="17" fill="#161b22" stroke="#30363d"/><text x="571.0" y="22" text-anchor="middle" font-family="'Segoe UI','Helvetica Neue',Arial,sans-serif" font-size="14" fill="#c9d1d9">Grad-CAM</text><rect x="634" y="0" width="145" height="34" rx="17" fill="#161b22" stroke="#30363d"/><text x="706.5" y="22" text-anchor="middle" font-family="'Segoe UI','Helvetica Neue',Arial,sans-serif" font-size="14" fill="#c9d1d9">Pipelines ETL</text><rect x="791" y="0" width="102" height="34" rx="17" fill="#161b22" stroke="#30363d"/><text x="842.0" y="22" text-anchor="middle" font-family="'Segoe UI','Helvetica Neue',Arial,sans-serif" font-size="14" fill="#c9d1d9">API REST</text><rect x="905" y="0" width="137" height="34" rx="17" fill="#161b22" stroke="#30363d"/><text x="973.5" y="22" text-anchor="middle" font-family="'Segoe UI','Helvetica Neue',Arial,sans-serif" font-size="14" fill="#c9d1d9">Web scraping</text><rect x="1054" y="0" width="59" height="34" rx="17" fill="#161b22" stroke="#30363d"/><text x="1083.5" y="22" text-anchor="middle" font-family="'Segoe UI','Helvetica Neue',Arial,sans-serif" font-size="14" fill="#c9d1d9">Git</text><rect x="1125" y="0" width="77" height="34" rx="17" fill="#161b22" stroke="#30363d"/><text x="1163.5" y="22" text-anchor="middle" font-family="'Segoe UI','Helvetica Neue',Arial,sans-serif" font-size="14" fill="#c9d1d9">Linux</text><rect x="1214" y="0" width="77" height="34" rx="17" fill="#161b22" stroke="#30363d"/><text x="1252.5" y="22" text-anchor="middle" font-family="'Segoe UI','Helvetica Neue',Arial,sans-serif" font-size="14" fill="#c9d1d9">LaTeX</text><rect x="1303" y="0" width="59" height="34" rx="17" fill="#161b22" stroke="#30363d"/><text x="1332.5" y="22" text-anchor="middle" font-family="'Segoe UI','Helvetica Neue',Arial,sans-serif" font-size="14" fill="#c9d1d9">C++</text><rect x="1374" y="0" width="85" height="34" rx="17" fill="#161b22" stroke="#30363d"/><text x="1416.5" y="22" text-anchor="middle" font-family="'Segoe UI','Helvetica Neue',Arial,sans-serif" font-size="14" fill="#c9d1d9">MATLAB</text><rect x="1471" y="0" width="77" height="34" rx="17" fill="#161b22" stroke="#30363d"/><text x="1509.5" y="22" text-anchor="middle" font-family="'Segoe UI','Helvetica Neue',Arial,sans-serif" font-size="14" fill="#c9d1d9">SciPy</text><rect x="1560" y="0" width="128" height="34" rx="17" fill="#161b22" stroke="#30363d"/><text x="1624.0" y="22" text-anchor="middle" font-family="'Segoe UI','Helvetica Neue',Arial,sans-serif" font-size="14" fill="#c9d1d9">Monte-Carlo</text><rect x="1700" y="0" width="111" height="34" rx="17" fill="#161b22" stroke="#30363d"/><text x="1755.5" y="22" text-anchor="middle" font-family="'Segoe UI','Helvetica Neue',Arial,sans-serif" font-size="14" fill="#c9d1d9">Bootstrap</text><rect x="1823" y="0" width="102" height="34" rx="17" fill="#161b22" stroke="#30363d"/><text x="1874.0" y="22" text-anchor="middle" font-family="'Segoe UI','Helvetica Neue',Arial,sans-serif" font-size="14" fill="#c9d1d9">Grad-CAM</text><rect x="1937" y="0" width="145" height="34" rx="17" fill="#161b22" stroke="#30363d"/><text x="2009.5" y="22" text-anchor="middle" font-family="'Segoe UI','Helvetica Neue',Arial,sans-serif" font-size="14" fill="#c9d1d9">Pipelines ETL</text><rect x="2094" y="0" width="102" height="34" rx="17" fill="#161b22" stroke="#30363d"/><text x="2145.0" y="22" text-anchor="middle" font-family="'Segoe UI','Helvetica Neue',Arial,sans-serif" font-size="14" fill="#c9d1d9">API REST</text><rect x="2208" y="0" width="137" height="34" rx="17" fill="#161b22" stroke="#30363d"/><text x="2276.5" y="22" text-anchor="middle" font-family="'Segoe UI','Helvetica Neue',Arial,sans-serif" font-size="14" fill="#c9d1d9">Web scraping</text><rect x="2357" y="0" width="59" height="34" rx="17" fill="#161b22" stroke="#30363d"/><text x="2386.5" y="22" text-anchor="middle" font-family="'Segoe UI','Helvetica Neue',Arial,sans-serif" font-size="14" fill="#c9d1d9">Git</text><rect x="2428" y="0" width="77" height="34" rx="17" fill="#161b22" stroke="#30363d"/><text x="2466.5" y="22" text-anchor="middle" font-family="'Segoe UI','Helvetica Neue',Arial,sans-serif" font-size="14" fill="#c9d1d9">Linux</text><rect x="2517" y="0" width="77" height="34" rx="17" fill="#161b22" stroke="#30363d"/><text x="2555.5" y="22" text-anchor="middle" font-family="'Segoe UI','Helvetica Neue',Arial,sans-serif" font-size="14" fill="#c9d1d9">LaTeX</text><rect x="2606" y="0" width="59" height="34" rx="17" fill="#161b22" stroke="#30363d"/><text x="2635.5" y="22" text-anchor="middle" font-family="'Segoe UI','Helvetica Neue',Arial,sans-serif" font-size="14" fill="#c9d1d9">C++</text><rect x="2677" y="0" width="85" height="34" rx="17" fill="#161b22" stroke="#30363d"/><text x="2719.5" y="22" text-anchor="middle" font-family="'Segoe UI','Helvetica Neue',Arial,sans-serif" font-size="14" fill="#c9d1d9">MATLAB</text><rect x="2774" y="0" width="77" height="34" rx="17" fill="#161b22" stroke="#30363d"/><text x="2812.5" y="22" text-anchor="middle" font-family="'Segoe UI','Helvetica Neue',Arial,sans-serif" font-size="14" fill="#c9d1d9">SciPy</text><rect x="2863" y="0" width="128" height="34" rx="17" fill="#161b22" stroke="#30363d"/><text x="2927.0" y="22" text-anchor="middle" font-family="'Segoe UI','Helvetica Neue',Arial,sans-serif" font-size="14" fill="#c9d1d9">Monte-Carlo</text><rect x="3003" y="0" width="111" height="34" rx="17" fill="#161b22" stroke="#30363d"/><text x="3058.5" y="22" text-anchor="middle" font-family="'Segoe UI','Helvetica Neue',Arial,sans-serif" font-size="14" fill="#c9d1d9">Bootstrap</text><rect x="3126" y="0" width="102" height="34" rx="17" fill="#161b22" stroke="#30363d"/><text x="3177.0" y="22" text-anchor="middle" font-family="'Segoe UI','Helvetica Neue',Arial,sans-serif" font-size="14" fill="#c9d1d9">Grad-CAM</text><rect x="3240" y="0" width="145" height="34" rx="17" fill="#161b22" stroke="#30363d"/><text x="3312.5" y="22" text-anchor="middle" font-family="'Segoe UI','Helvetica Neue',Arial,sans-serif" font-size="14" fill="#c9d1d9">Pipelines ETL</text><rect x="3397" y="0" width="102" height="34" rx="17" fill="#161b22" stroke="#30363d"/><text x="3448.0" y="22" text-anchor="middle" font-family="'Segoe UI','Helvetica Neue',Arial,sans-serif" font-size="14" fill="#c9d1d9">API REST</text><rect x="3511" y="0" width="137" height="34" rx="17" fill="#161b22" stroke="#30363d"/><text x="3579.5" y="22" text-anchor="middle" font-family="'Segoe UI','Helvetica Neue',Arial,sans-serif" font-size="14" fill="#c9d1d9">Web scraping</text><rect x="3660" y="0" width="59" height="34" rx="17" fill="#161b22" stroke="#30363d"/><text x="3689.5" y="22" text-anchor="middle" font-family="'Segoe UI','Helvetica Neue',Arial,sans-serif" font-size="14" fill="#c9d1d9">Git</text><rect x="3731" y="0" width="77" height="34" rx="17" fill="#161b22" stroke="#30363d"/><text x="3769.5" y="22" text-anchor="middle" font-family="'Segoe UI','Helvetica Neue',Arial,sans-serif" font-size="14" fill="#c9d1d9">Linux</text><rect x="3820" y="0" width="77" height="34" rx="17" fill="#161b22" stroke="#30363d"/><text x="3858.5" y="22" text-anchor="middle" font-family="'Segoe UI','Helvetica Neue',Arial,sans-serif" font-size="14" fill="#c9d1d9">LaTeX</text></g></g>
</g></svg>